<?xml version="1.0" encoding="UTF-8" standalone="no"?>
<svg width="14305.76" height="2348.64" viewBox="0 0 14305.76 2348.64" version="1.1" xmlns="http://www.w3.org/2000/svg">
  <title>Trọng Quí</title>
  <g style="fill:white;fill-opacity:1;stroke:none">
    <path transform="translate(88.82,1883.82) scale(1,-1)" d="M315 0V53L528 80V1255H477Q224 1255 131 1235L104 1026H37V1341H1217V1026H1149L1122 1235Q1092 1242 991.0 1247.5Q890 1253 770 1253H721V80L934 53V0Z" />
<path transform="translate(1708.46,1883.82) scale(1,-1)" d="M424 588V80L627 53V0H72V53L231 80V1262L59 1288V1341H638Q890 1341 1010.0 1256.0Q1130 1171 1130 983Q1130 849 1057.0 751.5Q984 654 855 616L1218 80L1363 53V0H1042L665 588ZM931 969Q931 1122 856.5 1186.5Q782 1251 595 1251H424V678H601Q780 678 855.5 744.5Q931 811 931 969Z" />
<path transform="translate(3443.10,1883.82) scale(1,-1)" d="M293 672Q293 349 401.0 204.0Q509 59 739 59Q968 59 1077.0 204.0Q1186 349 1186 672Q1186 993 1077.5 1134.5Q969 1276 739 1276Q508 1276 400.5 1134.5Q293 993 293 672ZM84 672Q84 1356 739 1356Q1063 1356 1229.0 1182.5Q1395 1009 1395 672Q1395 330 1227.0 155.0Q1059 -20 739 -20Q420 -20 252.0 154.5Q84 329 84 672ZM848 -231Q848 -275 816.0 -307.0Q784 -339 739 -339Q695 -339 663.0 -307.0Q631 -275 631 -231Q631 -186 663.0 -154.0Q695 -122 739 -122Q784 -122 816.0 -154.0Q848 -186 848 -231Z" />
<path transform="translate(5290.74,1883.82) scale(1,-1)" d="M1155 1262 975 1288V1341H1432V1288L1260 1262V0H1163L336 1206V80L516 53V0H59V53L231 80V1262L59 1288V1341H465L1155 348Z" />
<path transform="translate(7138.38,1883.82) scale(1,-1)" d="M1284 70Q1168 32 1043.0 6.0Q918 -20 774 -20Q448 -20 266.0 156.0Q84 332 84 655Q84 1007 260.5 1181.5Q437 1356 778 1356Q1022 1356 1249 1296V1008H1182L1155 1174Q1086 1223 989.5 1249.5Q893 1276 786 1276Q530 1276 411.5 1123.5Q293 971 293 657Q293 362 415.0 209.5Q537 57 776 57Q860 57 952.0 77.0Q1044 97 1092 125V506L920 532V586H1415V532L1284 506Z" />
<path transform="translate(9866.66,1883.82) scale(1,-1)" d="M293 670Q293 347 401.0 203.0Q509 59 739 59Q968 59 1077.0 202.0Q1186 345 1186 670Q1186 993 1076.5 1134.5Q967 1276 739 1276Q509 1276 401.0 1133.5Q293 991 293 670ZM84 670Q84 1356 739 1356Q1061 1356 1228.0 1182.5Q1395 1009 1395 670Q1395 179 1040 33L1090 -29Q1178 -139 1240.0 -186.0Q1302 -233 1362 -233L1444 -229V-295Q1421 -305 1357.5 -318.5Q1294 -332 1247 -332Q1176 -332 1121.0 -308.5Q1066 -285 1010.0 -233.5Q954 -182 823 -16Q787 -20 739 -20Q418 -20 251.0 155.5Q84 331 84 670Z" />
<path transform="translate(11714.30,1883.82) scale(1,-1)" d="M1159 1262 979 1288V1341H1436V1288L1264 1262V461Q1264 220 1131.5 100.0Q999 -20 747 -20Q480 -20 347.5 100.5Q215 221 215 442V1262L43 1288V1341H579V1288L407 1262V457Q407 92 762 92Q954 92 1056.5 183.0Q1159 274 1159 453Z" />
<path transform="translate(13561.94,1883.82) scale(1,-1)" d="M438 80 610 53V0H74V53L246 80V1262L74 1288V1341H610V1288L438 1262ZM209 1453V1486L405 1758H618V1721L264 1453Z" />
  </g>
</svg>
