<?xml version="1.0" encoding="UTF-8" standalone="no"?>
<svg width="9696" height="2384" viewBox="0 0 9696 2384" version="1.1" xmlns="http://www.w3.org/2000/svg">
  <title>Kỷ niệm</title>
  <g fill="currentColor" stroke="none">
    <path transform="translate(0.00,1901) scale(1,-1)" d="M188 1493H573V948L1128 1493H1575L856 786L1649 0H1167L573 588V0H188Z" />
    <path transform="translate(1587.00,1901) scale(1,-1)" d="M832 1642H669V1691Q669 1720 692 1757Q708 1783 763 1826L795 1851Q815 1867 831 1886Q855 1912 856 1934Q856 1972 812 1989Q774 2004 709 2004Q673 2004 629.0 1995.0Q585 1986 498 1951V2067Q578 2089 629.5 2098.0Q681 2107 730 2107Q861 2107 933.0 2060.0Q1005 2013 1005 1924Q1005 1878 983 1842Q960 1803 911 1767L879 1743Q849 1721 840 1707Q832 1695 832 1682ZM-20 1493H401L741 961L1081 1493H1503L934 629V0H549V629Z" />
    <path transform="translate(3783.00,1901) scale(1,-1)" d="M188 1493H618L1161 469V1493H1526V0H1096L553 1024V0H188Z" />
    <path transform="translate(5497.00,1901) scale(1,-1)" d="M188 1493H573V0H188Z" />
    <path transform="translate(6259.00,1901) scale(1,-1)" d="M511 -143H869V-435H511ZM188 1493H1227V1202H573V924H1188V633H573V291H1249V0H188ZM538 1899H846L1069 1635H891L692 1796L493 1635H315Z" />
    <path transform="translate(7658.00,1901) scale(1,-1)" d="M188 1493H678L1018 694L1360 1493H1849V0H1485V1092L1141 287H897L553 1092V0H188Z" />
  </g>
</svg>
